<svg xmlns="http://www.w3.org/2000/svg" width="2304" height="2460" viewBox="0 0 2304 2460" version="1.1">
	<path d="M 568 5.840 C 566.625 6.028, 563.959 7.348, 562.076 8.774 C 557.295 12.395, 275.665 294.454, 197.254 374.152 C 175.888 395.869, 173 399.181, 173 401.968 C 173 406.803, 176.389 411.994, 187.856 424.724 C 189.310 426.339, 192.525 430.324, 195 433.580 C 199.308 439.248, 212.210 454.792, 221.585 465.609 C 225.681 470.335, 230.331 476.238, 234.012 481.386 C 234.844 482.548, 237.873 485.975, 240.745 489 C 243.616 492.025, 245.973 494.819, 245.982 495.208 C 245.992 495.598, 249.737 500.323, 254.306 505.708 C 258.874 511.094, 263.381 516.623, 264.321 517.995 C 265.262 519.367, 268.037 522.742, 270.488 525.495 C 276.616 532.376, 281.937 538.894, 285.500 543.883 C 287.150 546.193, 290.571 550.300, 293.103 553.009 C 295.635 555.718, 299.678 560.537, 302.088 563.717 C 304.499 566.898, 308.975 572.425, 312.035 576 C 315.096 579.575, 318.918 584.300, 320.530 586.500 C 322.142 588.700, 324.820 591.926, 326.481 593.668 C 330.500 597.885, 334.163 602.288, 339.496 609.312 C 341.924 612.509, 344.805 616.109, 345.899 617.312 C 349.039 620.765, 364.902 640.097, 371.500 648.511 C 374.800 652.719, 379.696 658.488, 382.381 661.331 C 385.065 664.174, 388.559 668.586, 390.146 671.135 C 391.777 673.757, 394.312 676.301, 395.983 676.993 L 398.936 678.216 462.968 614.126 C 498.185 578.876, 527 549.516, 527 548.881 C 527 548.245, 524.638 544.913, 521.750 541.476 C 518.862 538.039, 514.925 533.141, 513 530.591 C 511.075 528.042, 507.312 523.603, 504.638 520.728 C 501.965 517.853, 499.040 514.340, 498.138 512.922 C 497.237 511.504, 493.800 507.077, 490.500 503.086 C 487.200 499.094, 479.550 489.843, 473.500 482.527 C 467.450 475.212, 460.925 467.114, 459 464.532 C 457.075 461.949, 453.771 457.976, 451.657 455.701 C 449.543 453.427, 445.756 448.852, 443.242 445.533 C 440.727 442.215, 436.147 436.575, 433.063 433 C 419.388 417.144, 418.607 414.938, 424.347 408.345 C 426.188 406.230, 462.646 369.400, 505.365 326.500 C 647.888 183.373, 644.061 187.149, 647.399 186.370 C 649.105 185.972, 887.929 185.636, 1178.121 185.624 C 1680.336 185.601, 1705.871 185.685, 1708.430 187.362 C 1709.909 188.332, 1732.580 210.672, 1758.810 237.009 C 1932.490 411.395, 1931.702 410.590, 1932.335 414.109 C 1933.109 418.400, 1932.703 418.935, 1890 469.978 C 1886.425 474.251, 1882.491 479.041, 1881.259 480.623 C 1878.490 484.177, 1867.645 497.417, 1857.292 509.882 C 1853.007 515.043, 1847.250 522.117, 1844.500 525.602 C 1839.292 532.204, 1829.383 544.244, 1817.605 558.282 C 1813.812 562.802, 1809.027 568.750, 1806.970 571.500 C 1804.913 574.250, 1801.266 578.598, 1798.865 581.163 C 1796.464 583.727, 1792.925 587.981, 1791 590.616 C 1789.075 593.250, 1783.675 599.967, 1779 605.542 C 1774.325 611.117, 1769.150 617.380, 1767.500 619.461 C 1765.850 621.542, 1761.986 626.227, 1758.913 629.872 C 1755.840 633.517, 1752.913 637.258, 1752.410 638.184 C 1751.907 639.110, 1749.122 642.485, 1746.222 645.684 C 1743.322 648.883, 1738.996 654.064, 1736.608 657.198 C 1734.221 660.332, 1730.199 665.282, 1727.670 668.198 C 1720.180 676.834, 1705.766 694.398, 1702 699.479 C 1700.075 702.075, 1697.150 705.693, 1695.500 707.518 C 1691.422 712.029, 1687.661 716.572, 1683.224 722.346 C 1681.176 725.011, 1676.575 730.668, 1673 734.917 C 1669.425 739.166, 1662.900 747.016, 1658.500 752.361 C 1654.100 757.707, 1647.446 765.775, 1643.714 770.290 C 1639.981 774.806, 1636.031 779.625, 1634.936 781 C 1630.900 786.066, 1618.865 800.765, 1611.292 809.876 C 1604.309 818.278, 1601.081 822.293, 1591.797 834.121 C 1590.311 836.015, 1587.221 839.575, 1584.931 842.032 C 1582.642 844.490, 1579.735 848.075, 1578.473 850 C 1577.210 851.925, 1573.159 856.875, 1569.470 861 C 1565.782 865.125, 1561.752 870.075, 1560.516 872 C 1559.279 873.925, 1556.070 877.833, 1553.384 880.685 C 1550.698 883.537, 1546.925 887.973, 1545 890.543 C 1539.978 897.247, 1535.397 902.935, 1531.498 907.305 C 1529.631 909.397, 1525.943 913.829, 1523.302 917.152 C 1520.661 920.475, 1515.688 926.550, 1512.250 930.653 C 1508.813 934.755, 1506 938.425, 1506 938.809 C 1506 939.193, 1503.637 941.991, 1500.750 945.025 C 1497.862 948.060, 1492.967 953.909, 1489.871 958.022 C 1486.775 962.135, 1483.233 966.400, 1482 967.500 C 1480.767 968.600, 1477.366 972.650, 1474.442 976.500 C 1471.518 980.350, 1467.034 985.750, 1464.476 988.500 C 1461.918 991.250, 1459.399 994.288, 1458.877 995.252 C 1457.593 997.622, 1445.393 1012.570, 1438 1020.831 C 1437.175 1021.753, 1435.600 1023.911, 1434.500 1025.626 C 1433.400 1027.341, 1430.186 1031.389, 1427.357 1034.622 C 1420.510 1042.447, 1408.102 1057.337, 1399.613 1067.917 C 1395.825 1072.638, 1391.100 1078.375, 1389.113 1080.666 C 1387.126 1082.957, 1384.527 1086.107, 1383.339 1087.666 C 1382.150 1089.225, 1378.325 1093.940, 1374.839 1098.145 C 1371.352 1102.350, 1367.150 1107.488, 1365.500 1109.564 C 1363.850 1111.640, 1361.271 1114.724, 1359.769 1116.419 C 1358.267 1118.114, 1353.767 1123.603, 1349.769 1128.617 C 1340.294 1140.501, 1328.221 1155.051, 1321.918 1162.184 C 1319.156 1165.311, 1314.781 1170.711, 1312.198 1174.184 C 1309.614 1177.658, 1306.314 1181.789, 1304.864 1183.364 C 1299.950 1188.701, 1298.508 1190.450, 1293.937 1196.613 C 1291.428 1199.997, 1286.880 1205.631, 1283.831 1209.133 C 1280.782 1212.635, 1272.821 1222.250, 1266.139 1230.500 C 1259.457 1238.750, 1251.631 1248.117, 1248.748 1251.316 C 1245.864 1254.515, 1243.098 1257.890, 1242.599 1258.816 C 1242.101 1259.742, 1238.950 1263.679, 1235.597 1267.565 C 1232.244 1271.450, 1228.375 1276.139, 1227 1277.984 C 1223.233 1283.039, 1218.294 1288.902, 1215.234 1291.951 C 1213.730 1293.450, 1211.150 1296.614, 1209.500 1298.983 C 1205.856 1304.214, 1201.455 1309.663, 1194.855 1317.111 C 1192.120 1320.197, 1189.154 1323.797, 1188.264 1325.111 C 1187.373 1326.425, 1184.907 1329.608, 1182.784 1332.185 C 1179.150 1336.594, 1178.750 1336.809, 1175.971 1335.840 C 1173.172 1334.864, 1171.883 1333.595, 1166 1326.015 C 1164.625 1324.244, 1161.801 1320.992, 1159.725 1318.790 C 1157.650 1316.588, 1153.406 1311.346, 1150.296 1307.143 C 1147.186 1302.939, 1143.565 1298.375, 1142.250 1297 C 1139.662 1294.293, 1126.430 1278.234, 1116 1265.141 C 1112.425 1260.653, 1107.539 1254.848, 1105.143 1252.241 C 1102.746 1249.633, 1099.452 1245.572, 1097.822 1243.216 C 1096.191 1240.860, 1093.073 1237.035, 1090.891 1234.716 C 1088.710 1232.397, 1084.410 1227.196, 1081.337 1223.158 C 1078.264 1219.120, 1074.343 1214.387, 1072.625 1212.641 C 1070.906 1210.895, 1067.484 1206.774, 1065.020 1203.483 C 1062.557 1200.193, 1056.707 1192.953, 1052.020 1187.395 C 1047.334 1181.838, 1041.925 1175.191, 1040 1172.624 C 1038.075 1170.057, 1034.138 1165.379, 1031.250 1162.229 C 1028.362 1159.080, 1026 1156.186, 1026 1155.800 C 1026 1155.413, 1022.350 1150.912, 1017.889 1145.798 C 1013.428 1140.684, 1008.747 1134.925, 1007.487 1133 C 1006.228 1131.075, 1003.015 1127.140, 1000.349 1124.255 C 997.682 1121.370, 992.575 1115.332, 989 1110.836 C 985.425 1106.340, 977.550 1096.769, 971.500 1089.568 C 965.450 1082.366, 958.925 1074.292, 957 1071.624 C 953.222 1066.390, 948.764 1061.023, 945.374 1057.628 C 944.205 1056.458, 940.830 1052.312, 937.874 1048.415 C 934.918 1044.518, 930.365 1038.893, 927.755 1035.915 C 920.833 1028.015, 908.149 1012.595, 903.246 1006.119 C 898.196 999.448, 894.866 995.443, 889.617 989.728 C 887.481 987.403, 884.563 983.925, 883.133 982 C 880.290 978.173, 873.380 969.605, 871 966.957 C 870.175 966.039, 868.375 963.825, 867 962.036 C 865.625 960.247, 861.575 955.296, 858 951.034 C 854.425 946.771, 847.225 938.007, 842 931.558 C 836.775 925.109, 830.492 917.575, 828.037 914.815 C 823.778 910.027, 815.844 900.171, 812.205 895.147 C 811.267 893.853, 809.011 891.153, 807.190 889.147 C 805.370 887.141, 800.727 881.450, 796.873 876.500 C 793.019 871.550, 787.667 865.025, 784.979 862 C 782.292 858.975, 778.835 854.758, 777.297 852.629 C 772.712 846.283, 764.717 837.905, 761.813 836.403 C 759.610 835.264, 751.203 835, 717.175 835 C 694.116 835, 673.754 835.299, 671.926 835.665 C 669.252 836.200, 661.431 843.492, 631.976 872.915 C 611.832 893.037, 594.669 910.625, 593.836 912 C 592.474 914.248, 592.488 914.874, 593.978 918.216 C 594.889 920.259, 596.729 922.991, 598.067 924.285 C 599.405 925.580, 601.625 928.090, 603 929.862 C 604.375 931.635, 608.425 936.603, 612 940.902 C 615.575 945.201, 619.625 950.157, 621 951.916 C 622.375 953.675, 625.332 957.262, 627.571 959.889 C 629.811 962.515, 634.308 968.002, 637.565 972.082 C 640.822 976.162, 646.120 982.650, 649.339 986.500 C 652.558 990.350, 656.305 994.850, 657.665 996.500 C 659.026 998.150, 662.312 1001.975, 664.967 1005 C 667.622 1008.025, 671.579 1012.975, 673.759 1016 C 675.940 1019.025, 679.135 1023.075, 680.858 1025 C 685.211 1029.861, 689.797 1035.414, 694.500 1041.521 C 699.565 1048.098, 712.603 1063.802, 719.026 1071.064 C 723.563 1076.192, 728.279 1082.128, 732 1087.393 C 732.825 1088.561, 734.625 1090.672, 736 1092.085 C 737.375 1093.499, 739.625 1096.056, 741 1097.767 C 750.431 1109.509, 758.965 1119.973, 768.500 1131.489 C 774.550 1138.795, 781.075 1146.895, 783 1149.489 C 784.925 1152.083, 788.084 1155.847, 790.020 1157.853 C 791.956 1159.859, 794.871 1163.300, 796.498 1165.500 C 798.124 1167.700, 803.402 1174.120, 808.227 1179.766 C 813.052 1185.413, 817 1190.363, 817 1190.768 C 817 1191.172, 819.362 1194.044, 822.250 1197.151 C 825.138 1200.258, 830.425 1206.682, 834 1211.427 C 837.575 1216.172, 842.571 1222.277, 845.103 1224.994 C 847.635 1227.711, 851.685 1232.537, 854.103 1235.717 C 856.521 1238.898, 861.313 1244.760, 864.750 1248.745 C 868.188 1252.730, 871.003 1256.330, 871.006 1256.745 C 871.010 1257.160, 873.288 1259.970, 876.069 1262.988 C 881.349 1268.718, 884.944 1273.069, 888.766 1278.357 C 890.013 1280.081, 893.038 1283.743, 895.490 1286.496 C 900.483 1292.102, 915.507 1310.269, 921.266 1317.664 C 925.638 1323.278, 929.473 1327.883, 933 1331.756 C 934.375 1333.265, 937.674 1337.424, 940.331 1340.997 C 942.989 1344.570, 947.353 1349.970, 950.029 1352.997 C 956.137 1359.903, 969.255 1375.736, 974.412 1382.426 C 976.564 1385.217, 981.064 1390.709, 984.412 1394.631 C 987.760 1398.554, 993.425 1405.453, 997 1409.963 C 1000.575 1414.473, 1004.715 1419.589, 1006.201 1421.332 C 1014.186 1430.697, 1025.010 1443.942, 1028.717 1448.881 C 1031.036 1451.971, 1035.195 1456.975, 1037.959 1460 C 1040.723 1463.025, 1043.746 1466.625, 1044.677 1468 C 1045.607 1469.375, 1049.784 1474.550, 1053.959 1479.500 C 1058.133 1484.450, 1063.505 1491.088, 1065.896 1494.250 C 1068.287 1497.412, 1070.552 1500, 1070.929 1500 C 1071.306 1500, 1073.012 1501.912, 1074.720 1504.250 C 1082.077 1514.319, 1087.257 1520.854, 1091.959 1526 C 1094.723 1529.025, 1098.798 1533.975, 1101.015 1537 C 1103.232 1540.025, 1106.048 1543.614, 1107.273 1544.975 C 1111.550 1549.727, 1116.519 1555.698, 1119 1559.067 C 1120.375 1560.934, 1122.850 1563.891, 1124.500 1565.638 C 1129.305 1570.726, 1131.389 1573.255, 1134.704 1578.022 C 1136.417 1580.485, 1139.537 1584.300, 1141.638 1586.500 C 1143.739 1588.700, 1146.143 1591.482, 1146.979 1592.682 C 1149.456 1596.236, 1168.200 1619.069, 1171.600 1622.675 C 1177.215 1628.629, 1178.029 1628.182, 1190.815 1612.128 C 1192.292 1610.273, 1196.005 1605.773, 1199.067 1602.128 C 1202.128 1598.483, 1205.399 1594.375, 1206.335 1593 C 1207.272 1591.625, 1210.078 1588.250, 1212.573 1585.500 C 1215.067 1582.750, 1220.346 1576.444, 1224.304 1571.487 C 1228.262 1566.529, 1232.254 1561.579, 1233.176 1560.487 C 1241.996 1550.030, 1253.156 1536.358, 1256 1532.524 C 1259.294 1528.083, 1261.229 1525.761, 1268.500 1517.524 C 1270.150 1515.654, 1273.075 1512.017, 1275 1509.441 C 1276.925 1506.866, 1281.425 1501.287, 1285 1497.045 C 1293.461 1487.007, 1306.351 1471.436, 1314.012 1462 C 1317.362 1457.875, 1321.228 1453.150, 1322.605 1451.500 C 1323.982 1449.850, 1328.121 1444.722, 1331.804 1440.104 C 1335.487 1435.486, 1343.450 1425.754, 1349.500 1418.477 C 1355.550 1411.200, 1362.300 1402.926, 1364.500 1400.089 C 1366.700 1397.251, 1370.859 1392.358, 1373.742 1389.215 C 1376.625 1386.072, 1378.987 1383.170, 1378.992 1382.766 C 1378.996 1382.363, 1382.947 1377.413, 1387.770 1371.766 C 1392.594 1366.120, 1398.510 1358.898, 1400.917 1355.718 C 1403.324 1352.537, 1405.927 1349.581, 1406.702 1349.147 C 1407.476 1348.713, 1408.873 1347.196, 1409.805 1345.775 C 1412.797 1341.214, 1422.700 1328.631, 1426.677 1324.336 C 1428.798 1322.047, 1432.326 1317.861, 1434.517 1315.035 C 1436.707 1312.209, 1440.692 1307.332, 1443.370 1304.198 C 1446.049 1301.064, 1449.930 1296.232, 1451.996 1293.461 C 1454.061 1290.690, 1457.598 1286.415, 1459.855 1283.961 C 1464.948 1278.426, 1466.918 1276.036, 1472.457 1268.679 C 1474.867 1265.477, 1477.795 1261.877, 1478.963 1260.679 C 1481.362 1258.217, 1495.228 1241.350, 1505 1229.005 C 1508.575 1224.488, 1512.850 1219.324, 1514.500 1217.529 C 1518.919 1212.720, 1521.185 1209.929, 1523.989 1205.838 C 1525.370 1203.824, 1528.609 1199.774, 1531.187 1196.838 C 1533.764 1193.902, 1538.413 1188.350, 1541.518 1184.500 C 1544.623 1180.650, 1548.255 1176.375, 1549.589 1175 C 1550.923 1173.625, 1555.274 1168.397, 1559.257 1163.383 C 1563.241 1158.369, 1568.750 1151.570, 1571.500 1148.273 C 1574.250 1144.977, 1578.300 1139.895, 1580.500 1136.979 C 1582.700 1134.064, 1585.758 1130.312, 1587.296 1128.643 C 1588.833 1126.974, 1591.308 1124.049, 1592.796 1122.143 C 1595.602 1118.547, 1608.463 1102.965, 1619.271 1090.065 C 1622.697 1085.976, 1627.300 1080.346, 1629.500 1077.554 C 1637.084 1067.930, 1651.582 1050.415, 1658.500 1042.520 C 1660.150 1040.637, 1662.850 1037.264, 1664.500 1035.024 C 1667.576 1030.847, 1682.698 1012.382, 1690.264 1003.563 C 1692.594 1000.848, 1696.663 995.898, 1699.306 992.563 C 1701.949 989.228, 1706.285 984.025, 1708.942 981 C 1711.600 977.975, 1715.466 973.250, 1717.534 970.500 C 1719.602 967.750, 1722.915 963.603, 1724.897 961.284 C 1726.879 958.965, 1729.701 955.590, 1731.169 953.784 C 1732.637 951.978, 1736.234 947.575, 1739.164 944 C 1742.093 940.425, 1747.562 933.675, 1751.317 929 C 1755.072 924.325, 1760.388 917.975, 1763.131 914.889 C 1765.873 911.803, 1768.845 908.203, 1769.735 906.889 C 1770.625 905.575, 1774.997 900.225, 1779.451 895 C 1783.904 889.775, 1788.270 884.375, 1789.153 883 C 1790.036 881.625, 1792.296 878.925, 1794.175 877 C 1796.055 875.075, 1800.426 869.781, 1803.889 865.235 C 1807.352 860.690, 1811.831 855.187, 1813.843 853.006 C 1815.854 850.825, 1820.200 845.621, 1823.500 841.440 C 1826.800 837.260, 1832.430 830.388, 1836.012 826.170 C 1839.593 821.951, 1843.856 816.700, 1845.484 814.500 C 1847.113 812.300, 1850.371 808.466, 1852.725 805.980 C 1855.078 803.493, 1858.189 799.714, 1859.639 797.581 C 1862.804 792.923, 1864.400 790.938, 1869 785.940 C 1870.925 783.849, 1873.516 780.869, 1874.757 779.319 C 1875.999 777.769, 1879.374 773.623, 1882.257 770.107 C 1885.141 766.591, 1888.902 761.866, 1890.616 759.607 C 1892.330 757.348, 1897.229 751.450, 1901.503 746.500 C 1908.698 738.168, 1915.367 729.827, 1919 724.619 C 1919.825 723.436, 1922.862 720.015, 1925.750 717.016 C 1928.638 714.016, 1931 711.218, 1931 710.798 C 1931 710.377, 1934.975 705.413, 1939.833 699.766 C 1944.691 694.120, 1949.124 688.664, 1949.684 687.641 C 1950.243 686.619, 1953.031 683.244, 1955.878 680.141 C 1958.725 677.039, 1964.205 670.450, 1968.055 665.500 C 1971.906 660.550, 1977.103 654.188, 1979.606 651.362 C 1982.108 648.535, 1984.883 645.160, 1985.772 643.862 C 1986.661 642.563, 1991.126 637.094, 1995.694 631.708 C 2000.263 626.323, 2004.008 621.598, 2004.018 621.208 C 2004.027 620.819, 2006.384 618.025, 2009.255 615 C 2012.127 611.975, 2015.156 608.548, 2015.988 607.386 C 2019.722 602.164, 2024.333 596.320, 2028.437 591.609 C 2036.715 582.105, 2049.477 566.724, 2053.754 561.097 C 2058.614 554.702, 2062.402 550.096, 2066 546.204 C 2067.375 544.717, 2070.750 540.519, 2073.500 536.875 C 2076.250 533.232, 2084.125 523.610, 2091 515.494 C 2097.875 507.378, 2104.379 499.559, 2105.453 498.119 C 2106.527 496.678, 2111.252 490.969, 2115.953 485.432 C 2120.654 479.894, 2125.625 473.849, 2127 471.998 C 2128.375 470.148, 2131.075 466.739, 2133 464.424 C 2137.724 458.741, 2143.126 452.197, 2145.221 449.618 C 2146.168 448.453, 2148.324 445.925, 2150.013 444 C 2151.701 442.075, 2156.150 436.591, 2159.900 431.814 C 2163.650 427.037, 2169.167 420.287, 2172.161 416.814 C 2179.355 408.469, 2181 405.697, 2181 401.916 C 2181 399.119, 2177.663 395.403, 2151.554 369.131 C 2049.940 266.879, 1998.231 214.780, 1996.376 212.785 C 1995.207 211.528, 1991.157 207.482, 1987.376 203.792 C 1983.594 200.103, 1943.076 159.603, 1897.335 113.792 C 1800.832 17.141, 1792.340 8.768, 1789.060 7.023 C 1787.068 5.965, 1674.782 5.705, 1178.560 5.613 C 844.127 5.551, 569.375 5.653, 568 5.840 M 564.346 596.277 C 562.231 598.080, 537.222 622.943, 508.772 651.528 C 480.322 680.112, 404.144 756.600, 339.489 821.500 C 183.533 978.046, 175.687 985.979, 173.152 989.672 L 170.975 992.844 173.207 996.672 C 175.555 1000.700, 195.514 1025.627, 203.897 1035 C 206.603 1038.025, 210.508 1042.750, 212.576 1045.500 C 214.643 1048.250, 219.185 1053.777, 222.668 1057.782 C 226.150 1061.787, 229.007 1065.387, 229.015 1065.782 C 229.024 1066.177, 231.161 1068.849, 233.765 1071.721 C 236.369 1074.592, 240.525 1079.484, 243 1082.592 C 245.475 1085.700, 250.875 1092.278, 255 1097.210 C 259.125 1102.142, 264.525 1108.767, 267 1111.931 C 272.237 1118.626, 285.473 1134.658, 293.476 1144 C 296.539 1147.575, 300.617 1152.525, 302.540 1155 C 304.462 1157.475, 307.396 1161.075, 309.060 1163 C 312.501 1166.981, 325.139 1182.504, 335.500 1195.476 C 339.350 1200.296, 343.320 1204.973, 344.323 1205.870 C 345.916 1207.295, 353.467 1216.771, 359.500 1224.916 C 360.600 1226.401, 363.637 1229.832, 366.250 1232.541 C 368.863 1235.249, 371 1237.813, 371 1238.238 C 371 1238.662, 373.843 1242.270, 377.317 1246.255 C 380.792 1250.240, 385.322 1255.750, 387.385 1258.500 C 389.448 1261.250, 393.345 1265.975, 396.044 1269 C 401.316 1274.909, 405.441 1280.011, 411 1287.499 C 412.925 1290.092, 415.905 1293.628, 417.622 1295.357 C 419.339 1297.085, 423.141 1301.650, 426.071 1305.500 C 429.002 1309.350, 434.122 1315.713, 437.450 1319.641 C 447.202 1331.151, 455.179 1340.823, 460 1346.983 C 462.475 1350.146, 470.125 1359.371, 477 1367.483 C 483.875 1375.595, 491.750 1385.226, 494.500 1388.886 C 499.529 1395.578, 500.226 1396.429, 506.226 1403.190 C 508.027 1405.219, 511.075 1408.943, 513 1411.464 C 514.925 1413.986, 523.025 1423.828, 531 1433.337 C 538.975 1442.846, 547.525 1453.269, 550 1456.501 C 552.475 1459.732, 555.400 1463.361, 556.500 1464.565 C 560.006 1468.400, 564.322 1473.614, 571 1482.079 C 574.575 1486.611, 582.239 1495.984, 588.031 1502.909 C 593.823 1509.834, 600.798 1518.375, 603.531 1521.890 C 606.264 1525.404, 610.002 1529.904, 611.837 1531.890 C 613.672 1533.875, 617.234 1538.200, 619.752 1541.500 C 622.270 1544.800, 626.865 1550.425, 629.963 1554 C 633.061 1557.575, 637.541 1563.088, 639.919 1566.250 C 642.297 1569.412, 644.597 1572, 645.030 1572 C 645.462 1572, 646.645 1573.291, 647.658 1574.869 C 650.141 1578.737, 657.922 1588.462, 666.884 1598.900 C 670.945 1603.630, 675.670 1609.348, 677.384 1611.607 C 679.098 1613.866, 682.903 1618.591, 685.839 1622.107 C 688.776 1625.623, 692.151 1629.776, 693.339 1631.336 C 694.528 1632.895, 697.972 1636.859, 700.992 1640.143 C 704.013 1643.428, 706.897 1646.877, 707.401 1647.808 C 708.291 1649.453, 710.936 1652.811, 717.004 1660 C 724.877 1669.327, 737.156 1684.357, 743 1691.820 C 746.575 1696.386, 751.694 1702.456, 754.376 1705.310 C 757.058 1708.165, 760.937 1712.975, 762.996 1716 C 765.054 1719.025, 769.098 1723.975, 771.981 1727 C 774.864 1730.025, 777.960 1733.663, 778.862 1735.085 C 779.763 1736.507, 784.435 1742.357, 789.245 1748.085 C 803.557 1765.129, 815.272 1779.451, 819 1784.461 C 820.925 1787.047, 824.256 1791.039, 826.403 1793.332 C 828.550 1795.624, 831.475 1799.099, 832.903 1801.053 C 835.523 1804.638, 847.419 1819.171, 858.522 1832.351 C 861.834 1836.283, 866.334 1841.739, 868.522 1844.475 C 870.710 1847.211, 876.017 1853.736, 880.316 1858.975 C 884.615 1864.214, 889.340 1870.001, 890.816 1871.835 C 892.292 1873.669, 894.625 1876.369, 896 1877.835 C 897.375 1879.301, 900.750 1883.476, 903.500 1887.113 C 906.250 1890.750, 912.325 1898.329, 917 1903.954 C 921.675 1909.580, 929.437 1918.979, 934.249 1924.841 C 939.061 1930.703, 945.361 1938.129, 948.249 1941.342 C 951.137 1944.554, 953.909 1947.929, 954.408 1948.842 C 954.908 1949.754, 956.636 1952.075, 958.250 1954 C 959.863 1955.925, 962.379 1958.975, 963.842 1960.777 C 965.304 1962.580, 967.625 1965.371, 969 1966.979 C 970.375 1968.588, 974.650 1973.815, 978.500 1978.596 C 992.896 1996.473, 997.143 2001.630, 1001.473 2006.500 C 1003.919 2009.250, 1008.316 2014.650, 1011.245 2018.500 C 1014.174 2022.350, 1018.550 2027.652, 1020.969 2030.282 C 1023.387 2032.913, 1026.072 2036.169, 1026.933 2037.520 C 1027.795 2038.870, 1032.100 2044.262, 1036.500 2049.503 C 1053.909 2070.237, 1061.652 2079.711, 1065.001 2084.371 C 1066.925 2087.050, 1069.620 2090.425, 1070.989 2091.871 C 1074.873 2095.973, 1080.257 2102.307, 1083 2105.999 C 1084.375 2107.850, 1088.425 2112.882, 1092 2117.180 C 1097.886 2124.258, 1102.683 2130.086, 1123.541 2155.500 C 1127.152 2159.900, 1131.995 2165.682, 1134.304 2168.349 C 1136.612 2171.016, 1138.899 2173.941, 1139.388 2174.849 C 1139.876 2175.757, 1141.451 2177.662, 1142.888 2179.082 C 1144.324 2180.502, 1147.075 2183.794, 1149 2186.397 C 1150.925 2189.001, 1156.550 2195.950, 1161.500 2201.839 C 1166.450 2207.729, 1171.175 2213.548, 1172 2214.771 C 1172.825 2215.994, 1174.850 2217.245, 1176.500 2217.552 C 1179.275 2218.068, 1179.871 2217.599, 1184.447 2211.305 C 1189.495 2204.361, 1191.581 2201.783, 1196 2197.030 C 1197.375 2195.551, 1200.504 2191.676, 1202.952 2188.420 C 1205.401 2185.164, 1209.939 2179.575, 1213.036 2176 C 1216.133 2172.425, 1220.213 2167.475, 1222.102 2165 C 1226.107 2159.754, 1229.814 2155.374, 1232.168 2153.107 C 1233.085 2152.223, 1236.010 2148.560, 1238.668 2144.966 C 1241.326 2141.372, 1244.521 2137.322, 1245.768 2135.966 C 1250.068 2131.292, 1254.122 2126.475, 1260.801 2118.105 C 1270.451 2106.011, 1283.701 2089.866, 1286.108 2087.268 C 1287.245 2086.041, 1290.422 2081.992, 1293.169 2078.271 C 1295.916 2074.550, 1300.353 2069.030, 1303.029 2066.003 C 1309.229 2058.992, 1322.339 2043.160, 1327.398 2036.574 C 1329.542 2033.783, 1333.829 2028.575, 1336.926 2025 C 1340.022 2021.425, 1344.568 2015.836, 1347.028 2012.580 C 1349.488 2009.324, 1352.625 2005.432, 1354 2003.931 C 1355.375 2002.430, 1357.713 1999.694, 1359.196 1997.851 C 1360.678 1996.008, 1365.628 1989.940, 1370.196 1984.366 C 1374.763 1978.792, 1383 1968.739, 1388.500 1962.025 C 1394 1955.311, 1402.658 1944.796, 1407.739 1938.659 C 1412.821 1932.521, 1417.996 1926.198, 1419.239 1924.606 C 1420.483 1923.015, 1422.625 1920.488, 1424 1918.991 C 1425.375 1917.494, 1428.300 1913.891, 1430.500 1910.984 C 1432.700 1908.077, 1437.010 1902.729, 1440.078 1899.099 C 1443.145 1895.470, 1448.770 1888.642, 1452.578 1883.926 C 1463.391 1870.532, 1474.608 1857.003, 1479.745 1851.160 C 1482.327 1848.223, 1485.857 1843.723, 1487.588 1841.160 C 1489.320 1838.597, 1492.934 1834.165, 1495.619 1831.310 C 1498.303 1828.456, 1503.425 1822.386, 1507 1817.820 C 1515.166 1807.392, 1529.300 1790.156, 1531.900 1787.454 C 1532.983 1786.329, 1535.945 1782.729, 1538.481 1779.454 C 1545.631 1770.224, 1548.154 1767.192, 1552.870 1762.161 C 1555.274 1759.598, 1558.255 1755.910, 1559.496 1753.966 C 1560.737 1752.023, 1563.955 1747.973, 1566.648 1744.966 C 1569.341 1741.960, 1573.513 1736.898, 1575.919 1733.717 C 1578.325 1730.537, 1582.365 1725.718, 1584.897 1723.009 C 1587.429 1720.300, 1590.850 1716.193, 1592.500 1713.883 C 1596.117 1708.818, 1601.423 1702.329, 1607.739 1695.248 C 1610.315 1692.359, 1612.851 1689.209, 1613.375 1688.248 C 1613.899 1687.287, 1617.753 1682.450, 1621.940 1677.500 C 1626.127 1672.550, 1630.735 1666.925, 1632.178 1665 C 1633.622 1663.075, 1636.310 1659.875, 1638.152 1657.890 C 1639.993 1655.904, 1643.736 1651.404, 1646.469 1647.890 C 1649.202 1644.375, 1656.177 1635.832, 1661.969 1628.905 C 1667.761 1621.977, 1675.504 1612.527, 1679.177 1607.905 C 1686.634 1598.518, 1690.302 1594.137, 1694.018 1590.181 C 1695.403 1588.706, 1697.319 1586.375, 1698.277 1585 C 1701.394 1580.524, 1706.285 1574.497, 1719 1559.462 C 1725.875 1551.333, 1733.418 1542.166, 1735.762 1539.091 C 1738.106 1536.016, 1742.223 1531.025, 1744.910 1528 C 1747.596 1524.975, 1751.528 1520.216, 1753.647 1517.424 C 1757.702 1512.082, 1759.559 1509.798, 1772.547 1494.178 C 1776.972 1488.855, 1783.856 1480.450, 1787.845 1475.500 C 1791.834 1470.550, 1797.438 1463.869, 1800.299 1460.654 C 1803.159 1457.439, 1805.911 1454.064, 1806.413 1453.154 C 1806.916 1452.244, 1810.753 1447.450, 1814.940 1442.500 C 1819.127 1437.550, 1823.719 1431.925, 1825.143 1430 C 1826.568 1428.075, 1829.481 1424.624, 1831.617 1422.332 C 1833.752 1420.039, 1837.075 1416.042, 1839 1413.449 C 1840.925 1410.856, 1846.584 1403.917, 1851.576 1398.029 C 1856.567 1392.141, 1861.967 1385.563, 1863.574 1383.412 C 1865.182 1381.260, 1869.311 1376.240, 1872.749 1372.255 C 1876.187 1368.270, 1879.002 1364.670, 1879.004 1364.255 C 1879.007 1363.840, 1881.747 1360.575, 1885.093 1357 C 1888.440 1353.425, 1893.921 1346.900, 1897.273 1342.500 C 1900.626 1338.100, 1904.445 1333.375, 1905.760 1332 C 1908.363 1329.277, 1921.949 1312.656, 1931.500 1300.509 C 1934.800 1296.312, 1939.416 1290.850, 1941.759 1288.371 C 1944.101 1285.893, 1947.766 1281.308, 1949.904 1278.182 C 1952.042 1275.057, 1955.750 1270.450, 1958.145 1267.944 C 1960.540 1265.439, 1963.625 1261.853, 1965 1259.977 C 1966.375 1258.100, 1970.230 1253.400, 1973.567 1249.532 C 1976.904 1245.665, 1981.338 1240.250, 1983.421 1237.500 C 1985.504 1234.750, 1989.388 1230.025, 1992.052 1227 C 1994.716 1223.975, 2000.057 1217.450, 2003.921 1212.500 C 2007.785 1207.550, 2013.079 1201.137, 2015.685 1198.248 C 2018.291 1195.359, 2020.853 1192.209, 2021.378 1191.248 C 2021.904 1190.287, 2026.196 1184.911, 2030.917 1179.303 C 2035.638 1173.694, 2043.667 1164.019, 2048.760 1157.803 C 2053.852 1151.586, 2063.302 1140.132, 2069.760 1132.349 C 2081.920 1117.691, 2084.557 1114.445, 2090.174 1107.223 C 2092.003 1104.871, 2096.745 1099.138, 2100.711 1094.483 C 2104.677 1089.828, 2109.680 1083.653, 2111.828 1080.760 C 2113.976 1077.867, 2116.753 1074.600, 2118 1073.500 C 2119.247 1072.400, 2121.958 1069.222, 2124.025 1066.439 C 2126.093 1063.655, 2130.870 1057.752, 2134.642 1053.321 C 2138.414 1048.890, 2144.425 1041.575, 2148 1037.066 C 2151.575 1032.557, 2155.850 1027.420, 2157.500 1025.652 C 2159.150 1023.884, 2161.625 1020.905, 2163 1019.033 C 2164.375 1017.161, 2168.008 1012.675, 2171.073 1009.064 C 2174.138 1005.454, 2178.097 1000.362, 2179.872 997.748 L 2183.099 992.996 2180.506 989.596 C 2179.079 987.726, 2175.120 983.486, 2171.706 980.174 C 2165.331 973.987, 2151.065 959.765, 2149.779 958.314 C 2149.383 957.866, 2107.308 915.584, 2056.279 864.354 C 2005.251 813.124, 1962.409 770.881, 1961.075 770.481 C 1958.438 769.691, 1957.198 770.847, 1948.765 781.965 C 1946.485 784.971, 1943.156 789.021, 1941.368 790.965 C 1937.675 794.980, 1923.502 811.938, 1920.539 815.887 C 1916.774 820.904, 1908.094 831.519, 1905.806 833.903 C 1904.538 835.225, 1902.600 837.529, 1901.500 839.023 C 1895.350 847.379, 1890.819 853.027, 1887.374 856.631 C 1885.243 858.860, 1882.375 862.179, 1881 864.005 C 1879.625 865.832, 1876.925 869.238, 1875 871.574 C 1873.075 873.910, 1869.025 878.844, 1866 882.539 C 1862.975 886.234, 1857.793 892.461, 1854.485 896.378 C 1846.121 906.282, 1844.755 908.620, 1845.471 911.814 C 1845.873 913.611, 1860.097 928.518, 1888.463 956.867 C 1911.778 980.169, 1931.371 1000.482, 1932.003 1002.008 C 1933.568 1005.786, 1931.281 1009.966, 1921.301 1021.570 C 1911.947 1032.446, 1904.129 1041.877, 1896.076 1052 C 1892.794 1056.125, 1888.811 1060.850, 1887.224 1062.500 C 1885.637 1064.150, 1883.596 1066.625, 1882.688 1068 C 1879.446 1072.911, 1864.710 1090.896, 1838.559 1121.857 C 1831.894 1129.748, 1826.352 1136.651, 1819.503 1145.589 C 1817.855 1147.740, 1815.380 1150.695, 1814.003 1152.155 C 1812.626 1153.615, 1807.450 1159.848, 1802.500 1166.005 C 1797.550 1172.163, 1789.073 1182.444, 1783.662 1188.851 C 1778.251 1195.258, 1772.486 1202.422, 1770.850 1204.771 C 1769.214 1207.120, 1765.766 1211.326, 1763.188 1214.117 C 1760.609 1216.909, 1758.091 1219.937, 1757.591 1220.846 C 1756.581 1222.685, 1748.164 1232.848, 1743.799 1237.500 C 1742.250 1239.150, 1739.075 1243.040, 1736.742 1246.145 C 1734.409 1249.249, 1729.125 1255.834, 1725 1260.778 C 1720.875 1265.722, 1713.225 1275.041, 1708 1281.486 C 1702.775 1287.932, 1697.103 1294.847, 1695.395 1296.853 C 1693.686 1298.859, 1689.186 1304.375, 1685.395 1309.110 C 1681.603 1313.846, 1674.182 1322.846, 1668.904 1329.110 C 1663.627 1335.375, 1656.088 1344.550, 1652.151 1349.500 C 1648.214 1354.450, 1643.637 1360.075, 1641.979 1362 C 1637.754 1366.907, 1633.944 1371.593, 1628.869 1378.121 C 1624.269 1384.040, 1612.982 1397.722, 1602.960 1409.532 C 1599.678 1413.399, 1595.287 1418.799, 1593.201 1421.532 C 1591.116 1424.264, 1587.969 1428.008, 1586.208 1429.852 C 1584.448 1431.696, 1580.223 1436.871, 1576.819 1441.352 C 1573.416 1445.833, 1569.549 1450.625, 1568.226 1452 C 1565.791 1454.532, 1554.872 1467.929, 1543 1482.954 C 1539.425 1487.478, 1535.095 1492.602, 1533.378 1494.340 C 1531.661 1496.078, 1527.888 1500.650, 1524.993 1504.500 C 1522.097 1508.350, 1518.075 1513.300, 1516.054 1515.500 C 1514.034 1517.700, 1510.513 1521.993, 1508.231 1525.039 C 1505.949 1528.086, 1502.245 1532.568, 1500 1535 C 1497.755 1537.432, 1494.045 1541.914, 1491.756 1544.961 C 1489.468 1548.007, 1485.059 1553.425, 1481.959 1557 C 1476.222 1563.616, 1470.282 1571.107, 1464.712 1578.750 C 1463.009 1581.088, 1461.306 1583, 1460.929 1583 C 1460.552 1583, 1458.287 1585.588, 1455.896 1588.750 C 1453.505 1591.912, 1448.133 1598.550, 1443.959 1603.500 C 1439.784 1608.450, 1435.687 1613.504, 1434.853 1614.732 C 1434.019 1615.959, 1431.038 1619.559, 1428.228 1622.732 C 1425.419 1625.904, 1420.101 1632.325, 1416.411 1637 C 1412.722 1641.675, 1408.308 1647.105, 1406.602 1649.067 C 1404.896 1651.029, 1402.476 1653.954, 1401.224 1655.567 C 1399.131 1658.266, 1396.676 1661.195, 1390 1668.962 C 1388.625 1670.561, 1385.925 1673.942, 1384 1676.475 C 1380.647 1680.887, 1372.394 1690.926, 1354 1712.968 C 1349.325 1718.571, 1345.123 1723.826, 1344.662 1724.646 C 1344.200 1725.467, 1341.388 1728.693, 1338.412 1731.816 C 1335.435 1734.938, 1333 1737.789, 1333 1738.152 C 1333 1738.765, 1330.102 1742.490, 1323.001 1751 C 1316.963 1758.237, 1303.251 1775.022, 1296.500 1783.441 C 1292.650 1788.242, 1287.551 1794.270, 1285.169 1796.835 C 1282.788 1799.401, 1280.101 1802.625, 1279.199 1804 C 1277.087 1807.219, 1270.660 1815.004, 1265.261 1820.884 C 1262.929 1823.423, 1261.017 1825.830, 1261.011 1826.234 C 1261.005 1826.637, 1257.062 1831.588, 1252.250 1837.236 C 1247.438 1842.883, 1241.948 1849.528, 1240.051 1852.002 C 1238.153 1854.476, 1234.082 1859.425, 1231.003 1863 C 1227.924 1866.575, 1223.401 1872.193, 1220.952 1875.483 C 1218.504 1878.774, 1215.049 1882.940, 1213.276 1884.740 C 1211.504 1886.541, 1208.306 1890.373, 1206.172 1893.257 C 1204.037 1896.141, 1199.188 1902.147, 1195.395 1906.604 C 1191.603 1911.061, 1186.497 1917.277, 1184.049 1920.418 C 1180.560 1924.895, 1179.156 1926.009, 1177.549 1925.578 C 1176.422 1925.275, 1174.963 1925.021, 1174.306 1925.014 C 1173.649 1925.006, 1170.504 1921.513, 1167.317 1917.250 C 1164.129 1912.987, 1161.168 1909.346, 1160.736 1909.158 C 1159.944 1908.814, 1150.084 1896.982, 1135.730 1879.152 C 1131.456 1873.843, 1126.506 1867.885, 1124.730 1865.912 C 1120.879 1861.634, 1119.947 1860.478, 1113.063 1851.451 C 1110.149 1847.628, 1106.706 1843.375, 1105.414 1842 C 1104.122 1840.625, 1098.280 1833.650, 1092.431 1826.500 C 1076.477 1806.995, 1062.272 1789.732, 1055 1781.011 C 1051.425 1776.724, 1047.375 1771.771, 1046 1770.005 C 1042.520 1765.534, 1036.846 1758.710, 1034.705 1756.420 C 1032.836 1754.420, 1028.962 1749.499, 1023 1741.549 C 1021.075 1738.982, 1017.908 1735.221, 1015.962 1733.191 C 1014.015 1731.161, 1011.113 1727.700, 1009.511 1725.500 C 1007.910 1723.300, 1004.064 1718.575, 1000.965 1715 C 997.866 1711.425, 993.253 1705.758, 990.713 1702.407 C 988.174 1699.056, 984.656 1694.781, 982.897 1692.907 C 981.138 1691.033, 977.463 1686.575, 974.729 1683 C 971.996 1679.425, 967.601 1674.025, 964.963 1671 C 962.325 1667.975, 957.316 1661.972, 953.833 1657.661 C 950.350 1653.349, 944.683 1646.374, 941.240 1642.161 C 937.797 1637.947, 933.747 1632.982, 932.240 1631.127 C 930.733 1629.272, 928.579 1626.755, 927.454 1625.535 C 926.328 1624.315, 923.248 1620.433, 920.609 1616.908 C 917.970 1613.384, 913.983 1608.538, 911.748 1606.140 C 909.513 1603.742, 906.068 1599.639, 904.092 1597.022 C 902.116 1594.404, 897.699 1588.941, 894.276 1584.881 C 882.477 1570.889, 870.491 1556.230, 867 1551.524 C 865.075 1548.929, 862.249 1545.387, 860.719 1543.653 C 855.769 1538.041, 834.603 1512.337, 831 1507.562 C 829.075 1505.011, 825.788 1501.079, 823.695 1498.823 C 821.602 1496.568, 818.700 1493.097, 817.245 1491.111 C 815.790 1489.125, 812.064 1484.575, 808.965 1481 C 805.866 1477.425, 801.144 1471.616, 798.472 1468.091 C 795.800 1464.565, 792.239 1460.290, 790.557 1458.591 C 787.887 1455.891, 778.425 1443.944, 773.976 1437.654 C 773.138 1436.469, 770.888 1433.890, 768.976 1431.923 C 767.064 1429.955, 762.800 1424.790, 759.500 1420.446 C 756.200 1416.101, 751.751 1410.736, 749.613 1408.523 C 747.475 1406.310, 744.709 1402.925, 743.467 1401 C 742.225 1399.075, 739.493 1395.700, 737.397 1393.500 C 735.301 1391.300, 731.410 1386.575, 728.750 1383 C 726.091 1379.425, 721.678 1374.025, 718.944 1371 C 716.209 1367.975, 710.754 1361.450, 706.820 1356.500 C 702.886 1351.550, 696.151 1343.225, 691.852 1338 C 687.554 1332.775, 681.216 1325.019, 677.768 1320.766 C 671.640 1313.204, 666.954 1307.513, 650.295 1287.404 C 630.180 1263.123, 624.275 1255.892, 621 1251.529 C 619.075 1248.965, 616.298 1245.434, 614.829 1243.683 C 613.360 1241.933, 609.513 1237.350, 606.280 1233.500 C 603.047 1229.650, 599.524 1225.324, 598.451 1223.887 C 594.936 1219.178, 581.145 1202.625, 575.766 1196.658 C 572.870 1193.446, 570.089 1190.071, 569.587 1189.158 C 569.085 1188.246, 566.012 1184.350, 562.756 1180.500 C 559.501 1176.650, 555.736 1172.150, 554.388 1170.500 C 553.041 1168.850, 548.015 1162.717, 543.219 1156.871 C 538.424 1151.025, 532.925 1144.180, 531 1141.660 C 529.075 1139.139, 525.580 1134.949, 523.234 1132.348 C 520.888 1129.747, 516.838 1124.724, 514.234 1121.187 C 511.630 1117.649, 507.025 1112.081, 504 1108.812 C 500.976 1105.544, 498.051 1102.045, 497.500 1101.036 C 496.950 1100.028, 492.675 1094.621, 488 1089.022 C 483.325 1083.422, 475.675 1074.264, 471 1068.670 C 466.325 1063.077, 460.475 1055.828, 458 1052.562 C 455.525 1049.296, 452.600 1045.663, 451.500 1044.488 C 448.228 1040.994, 440.608 1031.872, 439.070 1029.606 C 438.283 1028.448, 435.109 1024.575, 432.017 1021 C 428.924 1017.425, 424.971 1012.309, 423.232 1009.632 C 420.150 1004.885, 420.111 1004.686, 421.686 1001.632 C 422.574 999.909, 427.845 993.957, 433.400 988.404 C 438.955 982.851, 487.600 934.028, 541.500 879.909 C 595.400 825.789, 641.038 780.157, 642.917 778.504 L 646.333 775.500 1104.617 775 L 1562.900 774.500 1567.391 769.500 C 1572.939 763.322, 1586.164 747.388, 1591.398 740.574 C 1593.542 737.783, 1597.829 732.575, 1600.926 729 C 1604.022 725.425, 1608.561 719.800, 1611.011 716.500 C 1613.462 713.200, 1616.374 709.545, 1617.484 708.377 C 1621.339 704.317, 1624.541 700.546, 1631.500 691.867 C 1648.142 671.113, 1654.614 663.274, 1657.948 659.835 C 1659.902 657.819, 1662.850 654.260, 1664.500 651.926 C 1667.997 646.978, 1674.083 639.365, 1676.831 636.500 C 1678.946 634.295, 1687.658 623.735, 1697.274 611.722 C 1700.698 607.444, 1704.821 602.339, 1706.436 600.378 C 1708.729 597.593, 1709.143 596.450, 1708.327 595.156 C 1707.357 593.618, 1666.642 593.482, 1137.737 593.249 L 568.191 592.998 564.346 596.277" stroke="none" fill="black" fill-rule="evenodd"/>
</svg>